<?xml version="1.0" encoding="UTF-8"?>
<svg width="180" height="180" viewBox="0 0 180 180" fill="none" xmlns="http://www.w3.org/2000/svg">
  <rect width="180" height="180" rx="40" fill="#4F46E5"/>
  <path d="M90 40C62.4 40 40 62.4 40 90C40 117.6 62.4 140 90 140C117.6 140 140 117.6 140 90C140 62.4 117.6 40 90 40ZM90 130C67.9 130 50 112.1 50 90C50 67.9 67.9 50 90 50C112.1 50 130 67.9 130 90C130 112.1 112.1 130 90 130Z" fill="white"/>
  <path d="M90 60C73.4 60 60 73.4 60 90C60 106.6 73.4 120 90 120C106.6 120 120 106.6 120 90C120 73.4 106.6 60 90 60ZM90 110C76.2 110 65 98.8 65 85C65 71.2 76.2 60 90 60C103.8 60 115 71.2 115 85C115 98.8 103.8 110 90 110Z" fill="white"/>
</svg> 