<?xml version="1.0" encoding="UTF-8"?>
<svg width="40" height="40" viewBox="0 0 40 40" fill="none" xmlns="http://www.w3.org/2000/svg">
  <rect width="40" height="40" rx="20" fill="#10B981"/>
  <path d="M20 8C13.4 8 8 13.4 8 20C8 26.6 13.4 32 20 32C26.6 32 32 26.6 32 20C32 13.4 26.6 8 20 8ZM20 28C15.6 28 12 24.4 12 20C12 15.6 15.6 12 20 12C24.4 12 28 15.6 28 20C28 24.4 24.4 28 20 28Z" fill="white"/>
  <path d="M20 14C17.8 14 16 15.8 16 18C16 20.2 17.8 22 20 22C22.2 22 24 20.2 24 18C24 15.8 22.2 14 20 14ZM20 20C19.1 20 18 18.9 18 18C18 17.1 19.1 16 20 16C20.9 16 22 17.1 22 18C22 18.9 20.9 20 20 20Z" fill="white"/>
</svg> 